
<svg xmlns="http://www.w3.org/2000/svg" viewBox="0 0 55 55">
	<style type="text/css">
		.st0{fill:#F0CA3E;}
		.st1{fill:#FFFFFF;}
	</style>
	<path class="st0" d="M52,47.1c0,2.7-2.2,4.9-4.9,4.9H7.9C5.2,52,3,49.8,3,47.1V7.9C3,5.2,5.2,3,7.9,3h39.2C49.8,3,52,5.2,52,7.9
		V47.1z"/>
	<path class="st1" d="M6.9,33.2v-1.8l1.6-1.4c2.7-2.4,4.1-3.8,4.1-5.3c0-1-0.6-1.8-2-1.8c-1.1,0-2,0.5-2.7,1l-0.8-2.1
		c0.9-0.7,2.4-1.3,4.1-1.3c2.8,0,4.4,1.6,4.4,3.9c0,2.1-1.5,3.7-3.3,5.4l-1.1,1v0h4.7v2.4H6.9z"/>
	<path class="st1" d="M22.5,33.5c-3.2,0-4.6-2.9-4.6-6.4c0-3.6,1.5-6.4,4.7-6.4c3.3,0,4.6,3,4.6,6.4C27.2,30.8,25.6,33.5,22.5,33.5
		L22.5,33.5L22.5,33.5z M22.5,31.3c1.1,0,1.7-1.4,1.7-4.2c0-2.8-0.6-4.2-1.8-4.2c-1.1,0-1.8,1.4-1.8,4.2
		C20.7,29.9,21.4,31.3,22.5,31.3L22.5,31.3z"/>
	<path class="st1" d="M34.2,33.2v-3h-5.5v-1.9l4.7-7.6H37v7.3h1.5v2.2H37v3H34.2z M34.2,28.1v-2.8c0-0.7,0-1.5,0.1-2.3h-0.1
		c-0.4,0.8-0.7,1.5-1.2,2.3l-1.6,2.7l0,0H34.2z"/>
	<path class="st1" d="M44.8,20.6c2.9,0,4.1,1.7,4.1,3.2c0,1.1-0.6,2.1-1.8,2.7v0.1c1.2,0.5,2.3,1.5,2.3,3.1c0,2.3-1.9,3.8-4.8,3.8
		c-3.2,0-4.6-1.8-4.6-3.5c0-1.5,0.9-2.5,2.2-3.1v0c-1.2-0.6-1.8-1.6-1.8-2.7C40.4,22,42.3,20.6,44.8,20.6L44.8,20.6L44.8,20.6z
		 M44.7,31.4c1,0,1.7-0.7,1.7-1.5c0-1.1-0.8-1.7-2-2c-1,0.3-1.5,1-1.5,1.9C42.9,30.6,43.6,31.4,44.7,31.4L44.7,31.4L44.7,31.4z
		 M44.7,22.6c-1,0-1.5,0.7-1.5,1.4c0,0.8,0.7,1.4,1.7,1.7c0.7-0.2,1.3-0.8,1.3-1.6C46.2,23.3,45.8,22.6,44.7,22.6L44.7,22.6
		L44.7,22.6z"/>
</svg>
