
<svg xmlns="http://www.w3.org/2000/svg" viewBox="0 0 500 500">
	<defs>
		<filter x="-6.1%" y="-3.9%" width="112.1%" height="113.2%" filterUnits="objectBoundingBox" id="g2048-filter-1">
			<feOffset dx="0" dy="6" in="SourceAlpha" result="g2048ShadowOffsetOuter2"></feOffset>
			<feGaussianBlur stdDeviation="6" in="g2048ShadowOffsetOuter2" result="g2048ShadowBlurOuter2"></feGaussianBlur>
			<feColorMatrix values="0 0 0 0 0   0 0 0 0 0   0 0 0 0 0  0 0 0 0.5 0" type="matrix" in="g2048ShadowBlurOuter2" result="g2048ShadowMatrixOuter2"></feColorMatrix>
			<feMerge>
				<feMergeNode in="g2048ShadowMatrixOuter2"></feMergeNode>
				<feMergeNode in="SourceGraphic"></feMergeNode>
			</feMerge>
		</filter>
	</defs>
	<g transform="scale(0.99)">
		<path fill="#F0CA3E" filter="url(#g2048-filter-1)" d="M469,425.2c0,24.189-19.61,43.8-43.8,43.8H74.8c-24.19,0-43.8-19.61-43.8-43.8V74.8 C31,50.609,50.609,31,74.8,31h350.4C449.39,31,469,50.609,469,74.8V425.2z"/>
		<path fill="#FFFFFF" d="M104.79,290v-12.512l11.288-10.201c19.448-17.408,28.833-27.336,28.968-37.672 c0-7.208-4.216-12.92-14.416-12.92c-7.616,0-14.28,3.808-18.904,7.208l-5.848-14.688c6.528-5.032,17-9.112,28.833-9.112 c20.128,0,31.008,11.696,31.008,27.744c0,14.824-10.608,26.657-23.528,38.081l-8.16,6.801V273h33.457v17H104.79z"/>
		<path fill="#FFFFFF" d="M215.357,291.496c-22.849,0-32.913-20.536-33.048-45.561c0-25.705,10.744-45.833,33.592-45.833 c23.528,0,32.912,21.08,32.912,45.289c0,27.2-11.016,46.104-33.32,46.104H215.357z M215.629,275.855 c8.024,0,12.376-10.064,12.376-30.192c0-19.584-4.216-29.92-12.512-29.92c-7.752,0-12.648,9.928-12.648,29.92 c-0.136,20.4,4.76,30.192,12.648,30.192H215.629z"/>
		<path fill="#FFFFFF" d="M298.996,290v-21.08h-39.168v-13.465l33.32-53.856h25.432v51.817h10.473v15.504H318.58V290H298.996z  M298.996,253.416v-19.584c0-5.304,0.271-10.744,0.544-16.457h-0.407c-2.856,5.712-5.305,10.88-8.297,16.457l-11.695,19.312 l-0.137,0.272H298.996z"/>
		<path fill="#FFFFFF" d="M374.067,200.103c20.673,0,29.241,11.968,29.241,22.712c0,7.616-4.08,15.096-12.921,19.448v0.408 c8.704,3.264,16.32,10.608,16.32,21.897c0,16.047-13.464,26.928-34.001,26.928c-22.439,0-32.775-12.648-32.775-24.616 c0-10.608,6.119-17.952,15.775-22.168v-0.272c-8.568-4.488-12.783-11.696-12.783-19.448c0-14.96,13.463-24.888,31.008-24.888 H374.067z M373.66,277.216c7.207,0,12.104-4.761,12.104-11.017c0-7.752-5.848-12.375-13.872-14.552 c-6.8,1.904-10.744,6.8-10.744,13.192c-0.136,6.393,4.76,12.376,12.376,12.376H373.66z M373.388,214.111 c-7.072,0-10.608,4.76-10.608,10.2c0,5.984,5.305,9.792,12.377,11.968c4.76-1.36,8.976-5.712,8.976-11.152 c0-5.576-3.128-11.016-10.608-11.016H373.388z"/>
	</g>
</svg>
